Detona.Ralph.2013.720p.BluRay.x264-SPARKS.DUAL-GUR

Format                                   : Matroska
Format version                           : Version 2
File size                                : 4.63 GiB
Duration                                 : 1h 41mn
Overall bit rate                         : 6 554 Kbps
Encoded date                             : UTC 2013-03-30 21:06:46
Writing application                      : mkvmerge v4.6.0 ('Still Crazy After All These Years') built on Mar 10 2011 02:50:32
Writing library                          : libebml v1.2.0 + libmatroska v1.1.0

Video
ID                                       : 2
Format                                   : AVC
Format/Info                              : Advanced Video Codec
Format profile                           : High@L4.1
Format settings, CABAC                   : Yes
Format settings, ReFrames                : 5 frames
Muxing mode                              : Header stripping
Codec ID                                 : V_MPEG4/ISO/AVC
Duration                                 : 1h 41mn
Bit rate                                 : 4 663 Kbps
Width                                    : 1 280 pixels
Height                                   : 536 pixels
Display aspect ratio                     : 2.40:1
Frame rate mode                          : Constant
Frame rate                               : 23.976 fps
Color space                              : YUV
Chroma subsampling                       : 4:2:0
Bit depth                                : 8 bits
Scan type                                : Progressive
Bits/(Pixel*Frame)                       : 0.283
Stream size                              : 3.20 GiB (69%)
Writing library                          : x264 core 129 r2245 bc13772
Encoding settings                        : cabac=1 / ref=5 / deblock=1:0:0 / analyse=0x3:0x133 / me=umh / subme=7 / psy=1 / psy_rd=1.00:0.00 / mixed_ref=1 / me_range=16 / chroma_me=1 / trellis=1 / 8x8dct=1 / cqm=0 / deadzone=21,11 / fast_pskip=0 / chroma_qp_offset=-2 / threads=12 / lookahead_threads=2 / sliced_threads=0 / nr=0 / decimate=1 / interlaced=0 / bluray_compat=0 / constrained_intra=0 / bframes=3 / b_pyramid=2 / b_adapt=1 / b_bias=0 / direct=1 / weightb=1 / open_gop=0 / weightp=2 / keyint=250 / keyint_min=23 / scenecut=40 / intra_refresh=0 / rc_lookahead=40 / rc=2pass / mbtree=1 / bitrate=4663 / ratetol=1.0 / qcomp=0.60 / qpmin=0 / qpmax=69 / qpstep=4 / cplxblur=20.0 / qblur=0.5 / ip_ratio=1.40 / aq=1:1.00
Language                                 : English
Default                                  : Yes
Forced                                   : No

Audio #1
ID                                       : 1
Format                                   : AC-3
Format/Info                              : Audio Coding 3
Mode extension                           : CM (complete main)
Format settings, Endianness              : Big
Muxing mode                              : Header stripping
Codec ID                                 : A_AC3
Duration                                 : 1h 41mn
Bit rate mode                            : Constant
Bit rate                                 : 384 Kbps
Channel(s)                               : 6 channels
Channel positions                        : Front: L C R, Side: L R, LFE
Sampling rate                            : 48.0 KHz
Bit depth                                : 16 bits
Compression mode                         : Lossy
Stream size                              : 278 MiB (6%)
Title                                    : AC3 5.1  GUR
Language                                 : Portuguese
Default                                  : Yes
Forced                                   : No

Audio #2
ID                                       : 3
Format                                   : DTS
Format/Info                              : Digital Theater Systems
Mode                                     : 16
Format settings, Endianness              : Big
Muxing mode                              : Header stripping
Codec ID                                 : A_DTS
Duration                                 : 1h 41mn
Bit rate mode                            : Constant
Bit rate                                 : 1 509 Kbps
Channel(s)                               : 6 channels
Channel positions                        : Front: L C R, Side: L R, LFE
Sampling rate                            : 48.0 KHz
Bit depth                                : 24 bits
Compression mode                         : Lossy
Delay relative to video                  : 11ms
Stream size                              : 1.07 GiB (23%)
Title                                    : DTS 5.1
Language                                 : English
Default                                  : No
Forced                                   : No

Menu
00:00:00.000                             : en:00:00:00.000
00:07:12.140                             : en:00:07:12.140
00:16:34.910                             : en:00:16:34.910
00:27:07.501                             : en:00:27:07.501
00:37:25.952                             : en:00:37:25.952
00:44:46.684                             : en:00:44:46.684
00:48:45.130                             : en:00:48:45.130
00:51:36.009                             : en:00:51:36.009
00:58:56.032                             : en:00:58:56.032
01:09:07.893                             : en:01:09:07.893
01:13:39.623                             : en:01:13:39.623
01:15:56.802                             : en:01:15:56.802
01:18:52.978                             : en:01:18:52.978
01:21:53.742                             : en:01:21:53.742
01:27:25.365                             : en:01:27:25.365
01:33:10.543                             : en:01:33:10.543

